<?xml version="1.0" encoding="UTF-8" standalone="no"?>
<svg width="150px" height="30px" viewBox="0 0 150 30" version="1.1" xmlns="http://www.w3.org/2000/svg" xmlns:xlink="http://www.w3.org/1999/xlink">
    <!-- Generator: Sketch 3.8.3 (29802) - http://www.bohemiancoding.com/sketch -->
    <title>zalando-logo</title>
    <desc>Created with Sketch.</desc>
    <defs></defs>
    <g id="Page-1" stroke="none" stroke-width="1" fill="none" fill-rule="evenodd">
        <g id="zalando-logo">
            <path d="M65.429,7.443 C64.348,6.843 62.74,6.55 60.513,6.55 C57.466,6.551 54.638,7.19 53.568,7.592 C53.327,7.67 53.067,7.881 53.063,8.24 L53.064,8.32 L53.364,9.849 L53.371,9.878 C53.465,10.189 53.723,10.33 53.955,10.33 L53.957,10.33 C54.032,10.326 54.091,10.311 54.145,10.297 L54.653,10.177 C55.98,9.843 57.986,9.337 60.226,9.337 C61.584,9.337 62.498,9.455 63.11,9.716 C64.103,10.096 64.11,10.745 64.12,11.818 L64.12,13.423 C64.006,13.421 63.814,13.419 63.518,13.419 C62.421,13.419 60.264,13.471 58.143,13.814 C54.905,14.316 52.227,15.098 52.244,19.601 C52.245,25.317 57.498,25.327 60.022,25.332 L60.022,25.332 C61.735,25.33 63.316,25.074 64.349,24.86 C66.704,24.307 67.307,23.553 67.275,21.191 L67.275,11.686 C67.276,10.235 67.281,8.431 65.429,7.443 L65.429,7.443 Z M64.136,22.125 C62.882,22.535 61.51,22.742 60.057,22.742 L60.057,22.875 L60.054,22.742 C57.732,22.724 55.465,22.455 55.462,19.467 C55.477,17.089 56.734,16.808 58.325,16.449 L58.435,16.424 C59.85,16.118 63.404,16.061 64.136,16.053 L64.136,22.125 L64.136,22.125 Z M93.527,11.685 L93.527,21.19 C93.559,23.552 92.957,24.306 90.6,24.859 C89.569,25.073 87.988,25.329 86.275,25.331 L86.275,25.331 C83.751,25.325 78.499,25.315 78.497,19.6 C78.479,15.098 81.158,14.315 84.396,13.813 C86.517,13.47 88.675,13.418 89.772,13.418 C90.068,13.418 90.259,13.42 90.375,13.422 L90.375,11.817 C90.365,10.744 90.357,10.096 89.365,9.715 C88.753,9.454 87.838,9.336 86.479,9.336 C84.24,9.336 82.233,9.842 80.907,10.176 L80.4,10.296 C80.346,10.31 80.287,10.325 80.212,10.329 L80.21,10.329 C79.977,10.329 79.721,10.188 79.626,9.877 L79.618,9.848 L79.318,8.319 L79.316,8.239 C79.322,7.88 79.58,7.669 79.821,7.591 C80.893,7.189 83.718,6.55 86.766,6.549 C88.994,6.549 90.602,6.842 91.683,7.442 C93.535,8.431 93.531,10.235 93.527,11.685 L93.527,11.685 Z M90.391,16.053 C89.657,16.061 86.106,16.118 84.69,16.424 L84.579,16.449 C82.989,16.807 81.731,17.089 81.716,19.467 C81.72,22.455 83.987,22.725 86.311,22.742 L86.313,22.875 L86.313,22.742 C87.764,22.742 89.138,22.535 90.392,22.125 L90.392,16.053 L90.391,16.053 Z M141.087,6.55 C133.772,6.56 133.152,11.411 133.145,15.958 C133.153,20.487 133.772,25.319 141.087,25.331 L141.087,25.331 C148.397,25.319 149.019,20.499 149.03,15.956 C149.022,11.202 148.402,6.56 141.087,6.55 L141.087,6.55 Z M141.087,22.678 C136.651,22.657 136.428,20.359 136.398,15.958 C136.428,11.534 136.65,9.223 141.086,9.204 C145.524,9.223 145.746,11.534 145.777,15.956 C145.745,20.358 145.523,22.657 141.087,22.678 L141.087,22.678 Z M127.96,24.663 L127.77,24.711 C126.747,24.973 125.346,25.331 122.89,25.331 L122.884,25.331 C116.113,25.319 114.786,21.873 114.779,15.923 C114.787,9.1 116.929,6.559 122.686,6.55 C124.716,6.55 126.117,6.815 127.121,7.06 L127.115,1.562 C127.107,1.32 127.214,1.005 127.778,0.897 L129.578,0.434 L129.676,0.434 C130.09,0.444 130.235,0.815 130.237,1.13 L130.237,21.785 C130.263,23.089 130.11,24.208 127.96,24.663 L127.96,24.663 Z M127.116,9.705 C126.515,9.552 124.839,9.17 122.953,9.17 C119.487,9.203 118.032,10.152 117.996,15.958 C118.038,22.333 119.917,22.678 122.983,22.709 L122.985,22.844 L122.985,22.709 C124.893,22.709 126.529,22.307 127.114,22.147 L127.116,9.705 L127.116,9.705 Z M110.958,24.899 L109.351,24.899 C108.919,24.899 108.594,24.57 108.594,24.136 L108.594,11.883 C108.565,9.811 107.95,9.234 105.739,9.204 C103.238,9.204 100.705,9.837 99.871,10.066 L99.871,24.137 C99.871,24.578 99.566,24.9 99.148,24.9 L97.506,24.9 C97.074,24.9 96.75,24.571 96.75,24.137 L96.75,10.393 C96.726,9.122 96.843,8.243 98.637,7.656 C100.354,7.058 103.637,6.551 105.808,6.55 C109.943,6.554 111.707,8.061 111.713,11.586 L111.713,24.137 C111.713,24.57 111.389,24.899 110.958,24.899 L110.958,24.899 Z M74.536,25.231 L74.538,25.231 C75.462,25.211 76.144,25.028 76.414,24.724 C76.507,24.618 76.552,24.493 76.54,24.37 C76.534,24.269 76.534,24.269 76.281,23.071 L76.275,23.042 C76.219,22.729 75.998,22.586 75.815,22.586 L75.788,22.588 C75.788,22.588 75.558,22.578 75.328,22.578 L75.326,22.578 C74.668,22.557 74.121,22.459 74.111,21.487 L74.111,1.131 C74.109,0.792 73.907,0.444 73.518,0.435 L73.403,0.436 L71.601,0.901 C71.295,0.933 70.975,1.154 70.989,1.563 L70.989,21.553 C70.992,23.921 72.252,25.228 74.534,25.232 L74.536,25.232 L74.536,25.231 Z M49.099,24.899 L36.195,24.899 C35.764,24.899 35.439,24.57 35.438,24.136 L35.438,22.546 C35.43,22.155 35.553,21.984 35.792,21.685 L46.062,9.634 L35.998,9.634 C35.567,9.633 35.243,9.303 35.242,8.87 L35.242,7.744 C35.243,7.309 35.568,6.98 35.998,6.98 L49.034,6.98 C49.465,6.98 49.789,7.309 49.79,7.744 L49.79,9.367 C49.796,9.66 49.696,9.909 49.463,10.17 L39.167,22.247 L49.099,22.247 C49.53,22.247 49.854,22.574 49.856,23.01 L49.856,24.137 C49.854,24.57 49.53,24.899 49.099,24.899 L49.099,24.899 Z" id="zalando" fill="#1D1D1B"></path>
            <path d="M6.008,29.949 C4.913,29.949 4.305,29.691 3.981,29.502 C3.53,29.24 2.701,28.574 1.958,26.601 C0.766,23.436 0.062,19.575 0.03,15.035 L0.03,15.019 C0.062,10.48 0.766,6.617 1.958,3.454 C2.701,1.48 3.53,0.813 3.981,0.552 C4.305,0.362 4.912,0.104 6.006,0.104 C6.423,0.104 6.912,0.143 7.483,0.235 C10.793,0.776 14.459,2.091 18.369,4.334 L18.383,4.341 C22.262,6.638 25.224,9.185 27.343,11.808 C28.665,13.446 28.822,14.502 28.822,15.027 C28.822,15.55 28.665,16.61 27.343,18.245 C25.224,20.869 22.262,23.416 18.383,25.713 L18.369,25.721 C14.459,27.963 10.793,29.278 7.483,29.819 C6.912,29.913 6.424,29.949 6.008,29.949" id="logo" fill="#FF6900"></path>
        </g>
    </g>
</svg>