<?xml version="1.0" encoding="UTF-8" standalone="no"?>
<svg width="32px" height="32px" viewBox="0 0 32 32" version="1.1" xmlns="http://www.w3.org/2000/svg" xmlns:xlink="http://www.w3.org/1999/xlink">
    <!-- Generator: Sketch 3.8.3 (29802) - http://www.bohemiancoding.com/sketch -->
    <title>zalando-logo-icon</title>
    <desc>Created with Sketch.</desc>
    <defs></defs>
    <g id="Page-1" stroke="none" stroke-width="1" fill="none" fill-rule="evenodd">
        <g id="zalando-logo-icon" fill="#FF6900">
            <path d="M7.22881356,31.5 C6.08787163,31.5 5.45436232,31.2320154 5.11676855,31.0357011 C4.64684635,30.7635617 3.78306474,30.0717876 3.00889136,28.0224326 C1.76687969,24.7349472 1.0333426,20.7245267 1,16.0088289 L1,15.9922098 C1.0333426,11.2775507 1.76687969,7.26505277 3.00889136,3.97964483 C3.78306474,1.92925113 4.64684635,1.23643826 5.11676855,0.965337577 C5.45436232,0.767984587 6.08682967,0.5 7.22672965,0.5 C7.66122534,0.5 8.17074187,0.540509298 8.76569881,0.636069693 C12.2145735,1.19800637 16.0343846,2.5638968 20.1084329,4.89370079 L20.1230203,4.90097169 C24.164768,7.28686547 27.251042,9.93243424 29.4589469,12.6569442 C30.8364129,14.3583347 31,15.4552019 31,16.0005193 C31,16.5437594 30.8364129,17.6447814 29.4589469,19.3430558 C27.251042,22.0686045 24.164768,24.7141732 20.1230203,27.100067 L20.1084329,27.1083766 C16.0343846,29.4371419 12.2145735,30.8030323 8.76569881,31.364969 C8.17074187,31.4626068 7.6622673,31.5 7.22881356,31.5" id="logo"></path>
        </g>
    </g>
</svg>